#!OML:ASF X:\für Bonn\!DataBase\2005_08_10_Bjorn_Final\c3d\bjorn.ASF
:FULLY-SPECIFIED
:DEGREES
77
root -2.34065 18.5702 16.0514 -542.777 20.784 -536.493
lowerback 8.30955 3.42534 -1.21851
upperback 15.8052 8.12776 -3.2117
thorax 13.0582 5.34211 -2.31412
lowerneck -6.30603 0.588855 5.97639
upperneck -2.9782 0.584787 -1.85263
head 0.157475 0.310657 -1.57608
rclavicle 3.97569e-015 -3.33958e-014
rhumerus 5.66885 23.3247 -96.6771
rradius 78.8677
rwrist 18.4107
rhand -41.8853 23.8018
rfingers 7.12502
rthumb -14.7846 -5.65084
lclavicle 3.97569e-015 -3.33958e-014
lhumerus 4.65699 -53.5927 78.1365
lradius 51.7941
lwrist 25.7113
lhand -27.9098 2.76725
lfingers 7.12502
lthumb -1.29883 32.743
rfemur 353.489 -9.043 -344.562
rtibia 36.1602
rfoot -23.4524 12.3517
rtoes -9.3187
lfemur -17.7342 -2.02466 -8.13786
ltibia 40.4313
lfoot -14.2468 3.10702
ltoes -16.4147
78
root -2.31578 18.5614 16.0539 -543.275 20.9545 -536.486
lowerback 7.89195 3.37223 -0.780223
upperback 15.7203 7.99405 -3.16871
thorax 13.2389 5.2958 -2.47181
lowerneck -6.5386 0.715977 6.34011
upperneck -2.02564 0.673809 -2.03596
head 0.504355 0.347809 -1.70066
rclavicle -1.43125e-014 7.15625e-015
rhumerus 6.54583 23.4967 -96.3908
rradius 79.2285
rwrist 18.5738
rhand -42.0526 24.0151
rfingers 7.12502
rthumb -14.9458 -5.42567
lclavicle -1.43125e-014 7.15625e-015
lhumerus 5.21947 -53.34 77.9588
lradius 52.3875
lwrist 26.2235
lhand -28.1723 2.77372
lfingers 7.12502
lthumb -1.55232 32.7478
rfemur 354.044 -8.89665 -344.561
rtibia 36.1981
rfoot -23.51 12.4598
rtoes -9.19848
lfemur -17.083 -2.12361 -8.08424
ltibia 40.3749
lfoot -14.3645 3.04104
ltoes -16.5317
79
root -2.29053 18.5516 16.0553 -543.768 21.1232 -536.48
lowerback 7.49774 3.32722 -0.357759
upperback 15.6061 7.85376 -3.11402
thorax 13.3645 5.24038 -2.61616
lowerneck -6.67591 0.838471 6.69242
upperneck -1.10298 0.766882 -2.21448
head 0.829904 0.389808 -1.82358
rclavicle -4.05521e-014 2.94201e-014
rhumerus 7.363 23.6302 -96.133
rradius 79.6233
rwrist 18.8041
rhand -42.1846 24.223
rfingers 7.12502
rthumb -15.073 -5.20825
lclavicle -4.05521e-014 2.94201e-014
lhumerus 5.76082 -53.0287 77.8474
lradius 52.9382
lwrist 26.6321
lhand -28.3958 2.85395
lfingers 7.12502
lthumb -1.7682 32.8264
rfemur 354.592 -8.77191 -344.559
rtibia 36.2333
rfoot -23.6038 12.5262
rtoes -9.30777
lfemur -16.4401 -2.24443 -8.02361
ltibia 40.3312
lfoot -14.5059 2.92902
ltoes -16.3364
80
root -2.26463 18.5417 16.0562 -544.238 21.2563 -536.456
lowerback 7.09456 3.28027 0.0609716
upperback 15.4848 7.70197 -3.04015
thorax 13.4824 5.17592 -2.73988
lowerneck -6.75528 0.941676 6.99429
upperneck -0.205337 0.846511 -2.35522
head 1.13994 0.428875 -1.92693
rclavicle 2.8625e-014 -2.78299e-014
rhumerus 8.19007 23.7655 -95.8185
rradius 80.0241
rwrist 19.0338
rhand -42.3765 24.4474
rfingers 7.12502
rthumb -15.2579 -4.9699
lclavicle 2.8625e-014 -2.78299e-014
lhumerus 6.34498 -52.6948 77.7183
lradius 53.5132
lwrist 26.9889
lhand -28.6399 3.02779
lfingers 7.12502
lthumb -2.00398 32.9981
rfemur 355.135 -8.65745 -344.532
rtibia 36.2578
rfoot -23.7024 12.5876
rtoes -9.44924
lfemur -15.8327 -2.32809 -7.9476
ltibia 40.2993
lfoot -14.6197 2.76803
ltoes -16.3745
81
root -2.23858 18.531 16.0565 -544.7 21.3472 -536.451
lowerback 6.69427 3.23358 0.46288
upperback 15.3477 7.54034 -2.95386
thorax 13.5739 5.10177 -2.84529
lowerneck -6.77385 1.01039 7.22638
upperneck 0.713688 0.893363 -2.48126
head 1.44724 0.454753 -2.01522
rclavicle 4.29375e-014 2.62396e-014
rhumerus 9.00715 23.8637 -95.4758
rradius 80.3506
rwrist 19.3485
rhand -42.6123 24.7597
rfingers 7.12502
rthumb -15.485 -4.6402
lclavicle 4.29375e-014 2.62396e-014
lhumerus 6.96333 -52.3161 77.6233
lradius 54.1038
lwrist 27.4255
lhand -28.8156 3.26993
lfingers 7.12502
lthumb -2.1736 33.2386
rfemur 355.679 -8.54993 -344.518
rtibia 36.2743
rfoot -23.8039 12.6107
rtoes -9.56212
lfemur -15.2558 -2.47403 -7.89651
ltibia 40.2771
lfoot -14.7409 2.59384
ltoes -16.2297
